<?xml version="1.0" standalone="no"?>
<!DOCTYPE svg PUBLIC "-//W3C//DTD SVG 20010904//EN"
 "http://www.w3.org/TR/2001/REC-SVG-20010904/DTD/svg10.dtd">
<svg version="1.0" xmlns="http://www.w3.org/2000/svg"
 width="573.000000pt" height="573.000000pt" viewBox="0 0 573.000000 573.000000"
 preserveAspectRatio="xMidYMid meet">
<metadata>
Created by potrace 1.11, written by Peter Selinger 2001-2013
</metadata>
<g transform="translate(0.000000,573.000000) scale(0.100000,-0.100000)"
fill="#000000" stroke="none">
<path d="M2580 5616 c0 -4 -11 -5 -25 -2 -18 5 -25 2 -25 -8 0 -15 11 -15 101
-1 14 2 43 0 64 -5 24 -5 44 -5 51 1 7 6 19 3 35 -10 13 -10 35 -22 49 -26 41
-12 170 -78 170 -86 0 -11 -42 -39 -57 -39 -7 0 -23 11 -35 25 -14 17 -28 23
-42 19 -30 -7 -93 22 -101 46 -4 11 -20 27 -36 36 -25 12 -37 13 -67 3 -20 -6
-42 -16 -49 -21 -7 -6 -13 -4 -16 4 -3 10 -18 6 -58 -14 -50 -25 -58 -26 -102
-16 -36 9 -50 9 -59 0 -9 -9 -8 -12 5 -12 9 0 17 -4 17 -9 0 -4 12 -6 28 -4
21 4 24 2 12 -6 -12 -9 -11 -11 7 -11 26 0 79 -43 88 -71 4 -12 12 -18 21 -15
8 3 20 -6 29 -24 14 -26 14 -29 0 -24 -8 4 -15 13 -15 21 0 8 -4 12 -8 9 -5
-3 -34 2 -66 10 -82 22 -225 24 -248 5 -10 -9 -18 -23 -18 -32 0 -9 -7 -20
-16 -23 -8 -3 -13 -10 -9 -15 10 -17 -34 -32 -108 -37 -147 -9 -222 -19 -219
-29 2 -5 -16 -20 -40 -32 -52 -27 -56 -31 -88 -73 -14 -18 -33 -43 -42 -54
l-17 -21 -1 21 c0 12 -6 24 -14 27 -7 3 -17 23 -21 44 -7 39 -21 63 -36 63 -4
0 1 -21 13 -46 23 -53 32 -120 17 -129 -5 -4 -31 -8 -57 -11 -146 -12 -179
-16 -192 -25 -10 -7 4 -8 45 -3 78 11 125 10 150 -1 15 -6 -6 -12 -80 -21 -55
-6 -115 -16 -134 -22 -33 -11 -33 -11 -16 8 10 11 16 20 13 20 -10 0 -68 -32
-73 -40 -3 -4 -23 -11 -45 -15 -22 -4 -42 -11 -46 -16 -3 -5 -14 -9 -25 -9
-16 0 -18 5 -13 28 19 80 76 127 225 186 52 21 99 43 104 49 6 7 26 18 44 24
28 10 37 10 43 0 5 -8 8 -4 8 11 0 19 -4 22 -27 16 -35 -8 -90 -32 -123 -54
-14 -9 -55 -29 -93 -44 -120 -50 -197 -129 -197 -201 0 -20 -8 -28 -39 -41
-22 -8 -42 -22 -45 -29 -3 -8 -21 -17 -40 -20 -21 -4 -56 -26 -90 -57 -54 -48
-56 -51 -50 -89 4 -23 2 -44 -5 -52 -6 -8 -13 -34 -16 -58 -3 -24 -14 -55 -23
-69 -9 -14 -19 -30 -22 -36 -8 -19 -90 -104 -99 -104 -5 0 -14 7 -21 15 -7 8
-18 15 -24 15 -6 0 -3 -7 6 -14 27 -20 22 -31 -18 -44 -39 -12 -38 -12 -19 43
3 11 -5 2 -18 -20 -14 -22 -36 -53 -49 -69 -38 -47 -40 -55 -25 -84 19 -34 39
-145 31 -165 -3 -10 2 -21 15 -29 12 -7 21 -20 21 -28 0 -8 18 -23 40 -33 40
-18 40 -19 32 -60 -16 -91 -8 -169 22 -224 39 -71 139 -167 165 -158 15 4 27
-5 51 -40 46 -66 159 -115 269 -115 l51 0 0 -34 c0 -19 7 -63 15 -98 23 -101
35 -236 25 -282 -5 -23 -11 -88 -15 -146 -7 -120 -8 -134 -25 -250 -17 -117
-18 -218 -3 -225 7 -2 13 -12 14 -22 0 -16 1 -16 9 2 5 11 9 27 9 35 -1 10 -2
11 -6 2 -11 -28 -23 -9 -23 39 0 52 18 129 30 129 3 0 7 21 7 48 1 92 3 102
18 102 8 0 15 -4 15 -10 0 -5 -5 -10 -10 -10 -7 0 -7 -7 0 -20 6 -11 8 -25 5
-30 -3 -5 -6 -31 -7 -57 0 -26 -4 -52 -8 -58 -4 -5 -10 -18 -13 -27 -4 -13 -2
-15 10 -11 12 5 14 3 8 -7 -5 -8 -4 -11 2 -7 6 4 8 17 6 30 -3 16 1 26 11 30
9 4 16 2 16 -3 0 -6 -4 -10 -9 -10 -17 0 -5 -55 13 -58 19 -4 19 -7 6 -32 -6
-10 -6 -21 -1 -24 10 -6 33 42 26 54 -9 15 15 22 51 15 26 -4 34 -10 30 -21
-4 -12 -1 -14 14 -9 11 4 20 2 20 -4 0 -6 7 -11 16 -11 8 0 12 -5 9 -11 -4 -6
-1 -10 6 -8 37 4 58 -3 64 -22 4 -12 12 -18 21 -15 10 4 14 -2 14 -18 0 -13
-7 -26 -15 -30 -8 -3 -15 -10 -15 -16 0 -6 4 -9 9 -6 15 10 40 -5 35 -19 -3
-7 4 -23 15 -34 28 -28 33 -26 20 7 -6 15 -13 40 -15 56 -3 28 -3 29 14 13 15
-16 15 -19 2 -27 -13 -8 -12 -10 3 -10 10 0 20 -7 23 -15 4 -8 10 -12 15 -9 5
3 9 0 9 -5 0 -6 -6 -11 -12 -11 -9 0 -8 -4 2 -10 8 -5 22 -7 31 -5 9 3 16 -1
16 -8 0 -9 -7 -12 -19 -9 -14 3 -17 0 -12 -12 4 -10 0 -18 -10 -22 -20 -8 -21
-24 -2 -24 26 0 27 -18 1 -22 -13 -3 -22 -1 -19 3 3 5 0 9 -6 9 -7 0 -10 7 -6
15 3 8 3 15 0 15 -3 0 -10 -14 -15 -30 -11 -29 -29 -41 -29 -18 0 6 -3 8 -6 5
-4 -4 -2 -12 4 -20 8 -10 6 -13 -10 -14 -22 -2 -48 18 -48 38 0 6 -9 0 -21
-15 -11 -14 -24 -24 -29 -21 -10 6 -70 -24 -70 -36 0 -16 -27 -10 -51 11 -24
20 -24 20 -5 35 18 13 18 15 3 15 -10 0 -22 -12 -27 -26 -9 -22 -13 -24 -25
-14 -10 8 -15 9 -15 2 0 -6 4 -14 10 -17 15 -9 8 -83 -8 -77 -7 2 -11 7 -8 9
3 3 -1 12 -9 20 -11 11 -12 19 -4 34 8 15 6 25 -10 45 -26 33 -16 60 21 56 3
-1 9 5 11 13 4 9 0 13 -11 10 -13 -2 -17 5 -18 32 -1 26 2 33 13 29 8 -3 11
-1 8 4 -3 6 -13 10 -21 10 -19 0 -18 15 3 36 17 17 17 18 0 11 -10 -4 -23 -7
-28 -7 -6 0 -7 -4 -4 -10 3 -5 2 -10 -4 -10 -5 0 -12 10 -14 23 l-4 22 -8 -22
c-4 -11 -15 -23 -25 -26 -15 -4 -18 -17 -19 -98 -1 -93 3 -129 33 -304 19
-109 26 -161 33 -240 3 -33 9 -65 14 -71 5 -7 11 -56 14 -111 2 -55 9 -112 15
-127 5 -15 10 -45 10 -67 0 -23 4 -38 9 -34 10 5 16 -19 24 -102 3 -23 12 -50
21 -58 9 -9 16 -27 16 -41 0 -13 10 -32 21 -42 12 -9 32 -42 46 -72 14 -30 35
-66 48 -80 13 -14 28 -37 34 -52 6 -15 37 -47 70 -70 33 -24 61 -47 61 -51 0
-5 14 -20 30 -34 17 -14 37 -38 45 -54 10 -18 20 -26 30 -23 9 4 15 0 15 -8 0
-8 8 -30 17 -49 12 -24 19 -74 24 -169 l7 -135 -27 -23 c-14 -13 -46 -43 -71
-67 -25 -24 -56 -45 -70 -48 -14 -2 433 -5 993 -6 898 -1 1017 1 1017 14 0 8
7 15 15 15 20 0 19 10 -2 25 -15 11 -15 13 5 19 12 4 22 12 22 17 0 6 -4 8 -9
5 -5 -3 -11 1 -15 9 -3 8 -1 15 4 15 5 0 8 6 6 13 -1 6 -1 9 1 5 9 -16 24 -7
19 10 -4 10 1 27 9 38 16 22 20 48 5 39 -6 -3 -10 -3 -10 2 0 4 14 14 30 21
17 8 28 18 24 23 -3 5 -8 7 -12 5 -4 -2 -8 7 -8 20 -1 15 2 21 9 17 7 -4 8 0
3 12 -4 11 0 25 10 36 9 10 13 22 10 28 -3 5 -2 21 4 36 11 29 -11 75 -37 75
-8 0 -11 5 -8 11 4 6 13 8 21 5 8 -3 14 -1 14 5 0 5 -7 12 -15 15 -8 4 -15 11
-15 16 0 6 7 8 15 5 8 -4 17 -2 20 4 4 5 3 9 -2 8 -4 -1 -21 -1 -37 0 -28 1
-29 2 -10 16 12 9 14 14 6 15 -7 0 -10 5 -7 10 4 6 14 1 25 -12 22 -27 26 -12
5 16 -11 14 -12 23 -4 33 9 10 8 17 -2 30 -13 15 -12 16 9 10 23 -5 23 -5 6
14 -16 18 -16 19 1 19 11 0 15 5 11 15 -3 9 0 15 9 15 18 0 20 16 3 23 -10 4
-10 6 0 6 7 1 11 5 7 11 -3 5 -12 7 -20 4 -18 -7 -9 30 12 48 12 10 14 9 11
-7 -1 -10 3 -20 11 -23 8 -3 11 0 7 7 -4 6 -1 13 6 16 7 3 14 19 15 37 2 20
14 44 35 65 17 18 29 36 25 39 -3 4 0 12 7 20 7 7 17 32 21 56 8 42 8 42 15
13 6 -28 6 -29 14 -7 4 12 4 31 1 42 -4 14 -2 20 7 18 7 -2 14 8 16 22 2 14
10 32 17 40 20 24 27 106 10 120 -12 10 -15 9 -15 -4 0 -16 -2 -16 -15 -2 -19
19 -19 30 0 22 9 -3 18 1 20 9 3 8 8 23 12 33 3 9 7 24 7 32 1 8 8 14 17 14
14 -1 15 4 9 27 -5 16 -5 31 0 34 15 9 16 61 1 75 -10 10 -11 15 -3 18 7 2 12
13 12 23 0 11 4 18 9 15 5 -4 8 20 8 54 -1 33 -5 60 -9 60 -4 0 -5 7 -2 15 4
8 2 15 -4 15 -12 0 -24 43 -13 50 9 6 24 60 16 60 -3 0 -9 -10 -14 -22 -7 -20
-9 -18 -13 15 -2 20 -1 37 4 37 4 0 12 10 19 21 7 13 7 19 1 15 -6 -4 0 13 13
36 12 24 26 54 30 68 8 25 7 25 -13 7 -14 -13 -22 -15 -27 -7 -4 7 -2 17 4 23
6 6 11 19 11 29 0 10 4 18 8 18 5 0 8 22 8 49 0 27 8 76 18 108 32 106 36 119
36 136 0 23 31 85 45 90 7 3 10 -6 9 -25 -2 -23 1 -27 11 -18 7 6 19 25 26 43
7 18 19 36 26 40 7 4 13 15 13 24 0 9 3 14 6 10 3 -3 -1 -28 -10 -55 -9 -27
-14 -56 -10 -65 4 -11 1 -17 -9 -17 -22 0 -29 -14 -48 -105 -12 -54 -14 -86
-7 -98 5 -10 7 -23 5 -30 -2 -7 2 -25 10 -41 14 -26 13 -37 -3 -105 -17 -74
-17 -75 4 -112 12 -21 22 -51 22 -67 0 -16 6 -45 14 -63 37 -90 25 -110 -20
-34 -30 52 -50 57 -58 15 -3 -16 -8 -43 -11 -58 -5 -24 1 -35 35 -66 34 -31
47 -37 78 -34 37 3 37 4 40 51 2 26 8 47 14 47 5 0 7 7 4 16 -3 9 4 25 19 40
31 30 26 61 -17 116 -28 35 -29 40 -17 73 10 26 19 35 36 35 19 0 23 -5 23
-29 0 -37 43 -75 69 -62 25 14 86 143 127 266 27 83 38 133 41 202 5 85 3 99
-26 180 -49 135 -114 189 -182 153 -16 -9 -19 -7 -19 10 0 11 3 20 8 20 19 0
58 111 101 285 10 44 27 107 36 140 9 33 18 86 20 117 3 40 11 68 30 95 21 33
25 51 26 114 0 69 -7 96 -42 161 -13 24 -11 37 2 15 10 -17 13 -16 30 12 10
17 22 31 27 31 5 0 14 22 21 48 13 53 5 113 -25 176 -17 34 -16 35 8 58 32 30
44 88 25 125 -19 37 -32 84 -18 63 30 -44 19 92 -16 200 -8 25 -26 60 -39 78
-30 39 -116 103 -164 122 -19 7 -47 22 -61 32 -40 27 -117 58 -174 70 -27 6
-58 17 -68 26 -16 15 -17 14 -11 -1 7 -19 -12 -24 -19 -4 -4 9 -8 8 -17 -3
-10 -13 -11 -12 -6 3 12 36 -16 160 -44 200 -21 29 -29 34 -34 22 -3 -9 1 -18
10 -22 17 -6 44 -54 44 -78 0 -9 -4 -14 -9 -11 -10 7 -61 106 -64 126 -2 8 -5
20 -8 25 -4 6 -14 37 -24 70 -36 125 -48 160 -57 172 -14 18 6 47 49 73 31 18
47 21 87 16 56 -6 66 -16 66 -65 0 -27 3 -32 12 -23 9 9 14 7 25 -6 11 -15 12
-11 7 28 -8 57 -26 93 -60 119 -47 37 -125 21 -210 -44 -27 -20 -50 -32 -52
-27 -5 16 31 82 79 143 36 47 38 50 10 24 -18 -16 -49 -57 -68 -90 -20 -33
-38 -62 -39 -64 -3 -4 -73 46 -84 59 -3 3 -18 5 -35 5 -16 -1 -45 -3 -62 -3
-24 -2 -45 -14 -79 -47 -25 -25 -40 -45 -35 -45 6 0 11 -8 11 -17 0 -12 -14
-3 -45 30 -53 54 -85 63 -78 20 3 -20 2 -24 -5 -15 -5 8 -18 12 -28 10 -16 -3
-14 -8 15 -35 39 -38 53 -104 29 -137 -13 -17 -16 -14 -42 38 -16 32 -32 69
-36 84 -5 17 -9 20 -9 9 -1 -10 -6 -15 -11 -12 -6 4 -17 1 -25 -5 -8 -7 -16
-9 -16 -4 -1 5 -2 14 -3 19 -1 6 -5 34 -10 64 -16 105 -70 185 -131 197 -35 6
-49 17 -58 44 -6 21 1 -32 9 -66 7 -26 6 -28 -9 -15 -10 7 -17 10 -17 7 0 -4
-18 10 -41 31 -22 21 -48 42 -57 47 -15 9 -16 8 -2 -9 14 -17 14 -18 -6 -7
-12 6 -25 19 -28 29 -6 15 -8 15 -16 3 -8 -13 -14 -11 -34 12 -16 16 -45 31
-78 39 -61 14 -218 18 -218 5z m127 -83 c3 -7 -3 -9 -16 -6 -12 3 -21 10 -21
15 0 13 32 6 37 -9z m-90 -49 c19 -18 16 -24 -12 -24 -19 0 -25 5 -25 21 0 11
-4 17 -10 14 -5 -3 -10 -1 -10 5 0 14 38 3 57 -16z m-93 1 c4 -13 2 -14 -14
-5 -23 13 -26 20 -6 20 8 0 16 -7 20 -15z m640 -28 c17 -18 37 -47 45 -63 7
-16 17 -37 22 -47 6 -12 4 -25 -7 -42 -15 -23 -15 -25 0 -25 18 0 21 -15 6
-25 -8 -5 -7 -12 1 -22 10 -12 10 -16 -1 -23 -18 -11 -43 20 -29 36 6 8 4 17
-6 28 -9 9 -14 19 -11 24 6 10 -21 111 -35 128 -6 8 -15 11 -20 9 -8 -6 -29
26 -29 44 0 22 34 10 64 -22z m-539 -95 c-6 -7 -35 18 -35 31 0 5 9 2 20 -8
11 -10 18 -20 15 -23z m-205 1 c30 -15 54 -17 45 -3 -9 15 30 12 70 -4 34 -14
46 -38 25 -51 -5 -3 -19 -1 -30 5 -14 8 -20 8 -20 0 0 -6 -8 -9 -17 -6 -10 3
-66 7 -125 8 -60 2 -100 6 -90 9 14 6 12 8 -10 14 -34 9 -35 18 -5 33 46 23
108 21 157 -5z m1270 -53 c-8 -15 -17 -19 -31 -15 -10 4 -32 7 -49 7 -16 1
-27 5 -24 10 3 5 23 8 45 7 21 -2 41 0 45 4 15 15 24 6 14 -13z m384 4 c9 -8
16 -17 16 -18 0 -1 -20 2 -45 8 -33 8 -41 12 -28 18 28 11 40 9 57 -8z m-334
-25 c0 -6 -4 -7 -10 -4 -5 3 -10 11 -10 16 0 6 5 7 10 4 6 -3 10 -11 10 -16z
m43 -3 c18 -14 23 -41 8 -50 -5 -3 -16 5 -25 19 -27 41 -19 58 17 31z m-1530
-13 c-7 -2 -19 -2 -25 0 -7 3 -2 5 12 5 14 0 19 -2 13 -5z m1368 -67 c9 -21
12 -55 9 -88 -2 -31 -6 -42 -8 -26 -2 17 -8 25 -16 22 -17 -6 -26 35 -19 87 7
48 17 49 34 5z m147 -22 c7 -14 8 -23 2 -19 -15 9 -32 45 -22 45 5 0 14 -12
20 -26z m-567 9 c7 -43 6 -63 0 -58 -12 7 -20 65 -9 65 4 0 9 -3 9 -7z m45
-30 c-10 -10 -19 5 -10 18 6 11 8 11 12 0 2 -7 1 -15 -2 -18z m669 -47 c9 -24
15 -54 13 -67 -3 -21 -6 -19 -26 20 -23 46 -29 91 -13 91 5 0 17 -20 26 -44z
m-434 -43 c-6 -10 -11 -14 -11 -9 0 6 -7 1 -15 -10 -12 -16 -14 -16 -15 -3 0
9 10 23 23 32 27 18 33 15 18 -10z m352 -97 c3 -8 -1 -17 -9 -20 -9 -4 -14 1
-14 14 0 23 15 27 23 6z m-2416 -82 c-3 -3 -12 -4 -19 -1 -8 3 -5 6 6 6 11 1
17 -2 13 -5z m-433 -108 c-21 -15 -30 -14 -19 3 3 6 14 11 23 11 13 0 13 -2
-4 -14z m236 -66 c0 -5 -5 -10 -11 -10 -5 0 -7 5 -4 10 3 6 8 10 11 10 2 0 4
-4 4 -10z m3078 -91 c51 -21 72 -33 72 -41 0 -5 -4 -7 -10 -3 -5 3 -25 6 -45
7 -19 1 -40 7 -46 15 -6 7 -19 13 -29 13 -10 0 -23 7 -30 15 -10 12 -6 13 27
9 21 -3 48 -10 61 -15z m132 -93 c0 -3 -13 1 -30 7 -16 6 -30 15 -30 19 0 5
14 2 30 -7 17 -9 30 -17 30 -19z m150 -75 c33 -32 60 -65 60 -72 -1 -9 -6 -7
-15 6 -28 37 -78 85 -89 85 -6 0 -17 9 -24 20 -23 38 7 20 68 -39z m-205 19
c4 -6 -8 -10 -30 -10 -22 0 -34 4 -30 10 3 6 17 10 30 10 13 0 27 -4 30 -10z
m-3505 -27 c0 -3 -11 -21 -26 -40 -16 -21 -33 -33 -50 -33 -27 0 -31 12 -9 30
12 10 18 10 32 -1 9 -8 14 -9 10 -3 -7 12 19 54 34 54 5 0 9 -3 9 -7z m-66
-109 c9 -24 0 -29 -19 -11 -19 19 -19 27 -1 27 8 0 17 -7 20 -16z m-95 -63
c-10 -48 -10 -68 -1 -94 16 -45 15 -53 -10 -82 -27 -31 -35 -25 -44 30 -3 24
-11 43 -17 42 -6 -1 -11 3 -12 10 0 6 -2 14 -5 16 -3 3 -4 27 -2 54 4 47 5 49
50 70 26 12 48 20 50 18 2 -1 -2 -30 -9 -64z m158 44 c-23 -22 -33 -18 -12 5
10 11 20 18 23 16 2 -3 -3 -12 -11 -21z m-55 -54 c18 -41 19 -46 4 -56 -9 -7
-16 -20 -16 -30 0 -13 -6 -16 -25 -13 -14 3 -25 1 -25 -6 -1 -6 -8 2 -16 17
-15 28 -14 84 1 134 6 19 10 20 32 10 13 -6 33 -30 45 -56z m-212 -5 c0 -16
-18 -31 -27 -22 -8 8 5 36 17 36 5 0 10 -6 10 -14z m4056 -263 c-9 -22 -36
-15 -35 10 0 12 3 16 6 10 2 -7 9 -13 14 -13 6 0 6 8 -1 19 -5 11 -10 26 -10
33 0 7 7 0 15 -16 9 -16 13 -36 11 -43z m-3966 -23 c0 -5 -7 -7 -15 -4 -8 4
-15 8 -15 10 0 2 7 4 15 4 8 0 15 -4 15 -10z m273 -110 c-7 -27 -23 -36 -24
-13 0 12 -4 9 -11 -9 -5 -16 -13 -28 -17 -28 -30 0 -9 57 23 63 11 2 24 5 28
6 3 0 4 -8 1 -19z m-116 -21 c6 -6 9 -18 6 -25 -3 -8 0 -14 6 -14 6 0 11 -6
11 -12 0 -7 6 -25 14 -40 12 -23 12 -29 0 -39 -8 -6 -14 -19 -13 -28 0 -10 2
-11 6 -3 8 19 23 14 23 -8 0 -11 -7 -23 -15 -26 -8 -4 -12 -10 -9 -15 3 -5 3
-9 1 -9 -7 0 -67 95 -67 105 0 5 7 0 16 -11 10 -12 9 -7 -3 16 -11 20 -23 48
-27 64 -11 43 23 73 51 45z m1290 -62 c6 2 13 0 16 -4 3 -4 -8 -8 -24 -8 -16
-1 -31 5 -34 12 -3 10 0 11 13 5 9 -5 22 -7 29 -5z m-57 -57 c0 -5 -8 -10 -17
-10 -15 0 -16 2 -3 10 19 12 20 12 20 0z m-915 -30 c4 -6 -5 -10 -19 -10 -17
0 -26 -6 -26 -16 0 -8 -4 -12 -10 -9 -5 3 -10 15 -10 26 0 14 7 19 29 19 17 0
33 -4 36 -10z m0 -114 c38 -16 48 -32 14 -21 -22 7 -22 7 1 -26 l24 -34 -23
20 c-26 23 -65 75 -56 75 3 0 21 -7 40 -14z m2192 -168 c-3 -8 -6 -5 -6 6 -1
11 2 17 5 13 3 -3 4 -12 1 -19z m1267 -3 c-4 -8 -8 -15 -10 -15 -2 0 -4 7 -4
15 0 8 4 15 10 15 5 0 7 -7 4 -15z m-1284 -75 c0 -5 -4 -10 -10 -10 -5 0 -10
5 -10 10 0 6 5 10 10 10 6 0 10 -4 10 -10z m37 -4 c-10 -8 -26 -24 -37 -36
-11 -13 -20 -18 -20 -11 0 6 9 19 19 28 11 9 18 20 15 25 -3 4 5 8 18 8 21 -1
22 -2 5 -14z m48 -59 c0 -18 6 -22 31 -22 16 0 38 -8 48 -17 18 -19 31 -24 22
-10 -3 5 1 9 9 9 9 0 14 -7 13 -16 -2 -11 4 -15 18 -13 14 2 41 -18 87 -63 36
-36 70 -65 75 -65 5 0 15 -11 22 -25 7 -13 16 -22 20 -20 12 7 108 -89 103
-102 -3 -7 0 -13 6 -13 6 0 11 -6 11 -14 0 -8 3 -16 8 -18 12 -5 41 -100 47
-158 4 -30 15 -95 26 -143 11 -49 22 -123 26 -165 3 -42 10 -82 15 -89 5 -7 6
-22 3 -34 -4 -13 -7 -45 -6 -72 0 -27 -4 -58 -10 -69 -7 -13 -7 -18 -1 -14 13
8 12 -34 -1 -51 -5 -7 -5 -18 -1 -24 5 -8 3 -9 -6 -4 -9 5 -10 2 -5 -14 4 -13
2 -21 -5 -21 -6 0 -8 -10 -4 -26 5 -18 3 -25 -4 -20 -13 8 -44 -22 -36 -35 3
-6 0 -17 -8 -26 -11 -15 -11 -16 5 -10 19 7 20 6 11 -17 -3 -9 -12 -16 -20
-16 -7 0 -19 -10 -25 -22 -9 -19 -9 -21 2 -11 10 10 17 9 36 -9 18 -17 23 -18
23 -6 0 9 9 18 20 21 23 6 26 -3 8 -21 -10 -10 -10 -15 1 -21 11 -7 9 -13 -9
-31 -22 -22 -22 -24 -5 -37 27 -19 37 -16 29 10 -3 12 -3 19 1 15 5 -4 13 0
20 9 21 28 23 0 4 -42 -10 -22 -19 -34 -19 -27 0 6 -8 12 -17 12 -13 0 -14 -3
-5 -12 7 -7 11 -21 11 -33 -1 -17 -2 -17 -6 -2 -4 14 -8 16 -19 6 -19 -15 -18
-40 1 -33 22 9 18 -1 -16 -40 -17 -20 -28 -40 -24 -46 3 -6 11 -8 16 -5 11 7
11 -3 -1 -30 -8 -19 -9 -19 -9 3 -1 32 -21 17 -22 -16 -2 -24 -2 -24 -6 -4 -5
26 -12 28 -28 5 -9 -13 -10 -22 -2 -34 8 -14 7 -22 -4 -36 -8 -10 -24 -35 -34
-55 -11 -21 -23 -38 -27 -38 -8 0 -5 9 21 58 7 14 7 22 1 22 -5 0 -10 -5 -10
-11 0 -5 -4 -7 -10 -4 -5 3 -10 -3 -10 -13 0 -11 -7 -25 -15 -32 -8 -7 -17
-28 -21 -49 -3 -20 -17 -58 -30 -85 -23 -47 -24 -48 -24 -19 0 19 -6 33 -16
37 -12 4 -14 1 -9 -14 5 -16 2 -20 -14 -20 -22 0 -28 24 -12 50 6 8 7 18 4 24
-4 5 -16 -24 -28 -64 -20 -68 -45 -104 -45 -66 0 9 -5 16 -11 16 -5 0 -7 6 -4
13 4 6 0 4 -8 -5 -10 -13 -16 -15 -25 -6 -9 9 -12 9 -12 -1 0 -11 -3 -11 -15
-1 -8 7 -15 17 -15 22 0 6 6 6 14 -1 9 -7 17 -8 20 -2 3 5 0 12 -6 14 -10 4
-10 8 2 16 12 8 12 13 -4 30 -25 27 -9 27 19 1 l22 -21 1 31 c0 17 -6 46 -13
64 -17 41 -7 89 21 95 27 5 30 14 29 85 -1 51 2 61 12 50 7 -7 13 -21 13 -31
1 -17 1 -17 11 -1 7 13 3 27 -16 57 -14 23 -25 47 -25 56 0 8 -7 15 -15 15 -8
0 -15 3 -15 8 -1 13 -51 64 -57 58 -3 -3 2 -15 12 -26 16 -18 16 -20 2 -20
-10 0 -17 7 -17 15 0 9 -7 18 -15 21 -20 8 -19 41 3 54 15 9 14 10 -5 5 -14
-4 -23 -2 -23 4 0 6 -14 11 -31 11 -19 0 -28 -4 -23 -11 14 -23 -29 -3 -45 21
-15 23 -15 24 2 17 13 -5 17 -3 15 5 -3 7 -10 13 -15 13 -6 0 -21 12 -33 28
-12 15 -17 27 -12 27 6 0 13 -6 15 -12 3 -7 6 -3 6 9 1 17 -3 21 -16 16 -16
-6 -16 -5 -5 10 8 9 11 25 7 37 -5 14 -2 20 9 20 19 0 21 17 4 22 -7 3 -9 12
-5 22 4 9 11 15 16 12 5 -3 7 3 4 13 -6 22 -29 35 -38 21 -9 -14 -37 1 -31 16
3 8 1 14 -4 14 -6 0 -10 9 -10 20 0 13 5 18 15 14 8 -4 15 -4 15 -1 0 12 -51
57 -64 57 -8 0 -17 7 -20 16 -4 11 -1 14 12 10 16 -5 19 -1 19 26 0 18 -2 27
-4 21 -6 -18 -30 -16 -37 3 -4 9 -4 19 -2 21 9 9 61 -22 62 -37 2 -35 5 -40
20 -40 14 0 14 2 3 16 -11 14 -10 19 10 35 13 11 21 22 18 26 -4 3 -13 1 -21
-6 -11 -9 -18 -5 -36 24 -20 32 -31 40 -52 36 -10 -1 -10 21 1 37 5 9 22 11
50 8 39 -5 46 -2 75 30 l32 35 23 -25 c15 -16 22 -32 18 -46 -3 -11 -1 -23 4
-26 5 -3 9 0 9 6 0 8 7 9 18 5 9 -3 22 -7 27 -8 6 -1 13 -9 17 -17 5 -12 8
-11 13 6 5 16 13 20 28 17 17 -4 19 -3 7 6 -8 5 -11 13 -8 17 8 7 -26 37 -54
47 -26 9 -23 37 4 37 21 0 21 0 -3 27 -13 15 -17 22 -8 15 14 -11 17 -10 15 5
0 10 -6 20 -12 23 -7 3 -4 12 8 25 16 17 18 17 12 2 -5 -13 -2 -16 10 -11 9 3
16 12 16 20 0 14 10 18 40 15 10 -1 16 8 16 29 1 16 -2 30 -7 30 -5 0 -9 6 -9
14 0 8 -7 16 -15 20 -8 3 -15 15 -15 26 0 30 -51 72 -90 75 -19 2 -36 8 -38
14 -2 6 -13 11 -24 11 -11 0 -22 8 -25 20 -3 11 -12 20 -19 20 -8 0 -14 5 -14
10 0 6 10 10 21 10 17 0 19 3 10 14 -9 11 -4 17 21 29 29 15 30 17 10 17 -13
0 -20 4 -17 10 3 6 16 10 27 10 l21 0 -21 18 c-11 9 -29 22 -39 28 -16 10 -16
11 4 9 12 -1 31 -9 42 -19 10 -9 21 -13 24 -8 3 4 -7 16 -24 26 -16 9 -29 22
-29 27 0 6 6 7 13 3 9 -6 9 -4 -1 8 -7 9 -35 25 -62 37 -38 16 -48 25 -43 38
4 10 2 14 -5 9 -6 -3 -13 -2 -17 3 -3 6 -12 8 -19 5 -23 -9 -30 16 -10 32 11
9 14 13 8 10 -16 -8 -28 26 -12 35 6 4 16 5 20 3 4 -3 8 2 8 11 0 13 4 14 20
5 16 -9 20 -8 21 7 1 10 5 2 9 -17 10 -40 6 -48 -13 -32 -10 8 -16 6 -24 -8
-10 -14 -9 -21 3 -31 8 -6 17 -9 21 -5 3 3 0 6 -8 6 -8 1 0 7 17 14 29 13 31
17 27 57 -4 38 -3 41 12 29 13 -11 15 -10 9 3 -6 17 20 51 46 59 19 7 24 2 25
-25z m-1010 13 c3 -5 2 -10 -4 -10 -5 0 -13 5 -16 10 -3 6 -2 10 4 10 5 0 13
-4 16 -10z m-77 -35 c-3 -3 -9 2 -12 12 -6 14 -5 15 5 6 7 -7 10 -15 7 -18z
m1119 19 c-3 -3 -12 -4 -19 -1 -8 3 -5 6 6 6 11 1 17 -2 13 -5z m-1040 -49
c-5 -14 -47 -19 -47 -6 0 6 10 11 23 11 12 0 18 4 12 8 -5 4 -11 14 -13 22 -1
10 3 9 13 -5 8 -10 14 -24 12 -30z m-602 25 c3 -6 -1 -7 -9 -4 -18 7 -21 14
-7 14 6 0 13 -4 16 -10z m305 0 c0 -5 -5 -10 -11 -10 -5 0 -7 5 -4 10 3 6 8
10 11 10 2 0 4 -4 4 -10z m51 -6 c17 -16 16 -49 -2 -38 -5 3 -9 0 -9 -6 0 -6
11 -8 25 -6 28 5 40 -7 28 -28 -8 -14 -12 -16 -33 -16 -5 0 -10 -4 -10 -10 0
-19 31 -10 55 15 16 18 25 22 30 14 5 -7 21 -9 44 -5 20 3 32 2 26 -2 -5 -4
-15 -16 -21 -26 -15 -28 -32 -31 -36 -7 -2 15 -7 18 -17 12 -12 -8 -12 -12 -2
-25 9 -11 10 -16 2 -16 -6 0 -11 5 -11 10 0 15 -16 12 -34 -5 -8 -8 -24 -15
-36 -15 -17 0 -21 5 -17 20 6 22 5 23 -17 14 -9 -3 -16 -15 -16 -25 0 -10 -7
-19 -15 -19 -8 0 -15 5 -15 10 0 6 -9 10 -20 10 -11 0 -20 7 -20 15 0 21 -28
8 -36 -17 -4 -15 -9 -17 -17 -9 -7 7 -13 16 -13 22 -1 5 -2 13 -3 19 0 5 -8 7
-16 4 -8 -4 -12 -10 -9 -15 3 -5 0 -9 -5 -9 -19 0 -12 32 11 51 l21 19 -21 0
c-11 0 -28 -7 -36 -16 -11 -11 -16 -12 -16 -3 0 10 -3 10 -12 1 -17 -17 -29
-15 -21 3 3 9 2 15 -3 14 -20 -3 -44 2 -44 10 0 10 48 2 55 -9 8 -13 55 2 55
17 0 9 6 13 15 9 11 -4 15 2 16 22 0 15 3 21 6 15 3 -9 10 -10 24 -3 10 6 19
8 19 5 0 -12 -6 -20 -13 -17 -5 1 -6 -2 -3 -7 4 -5 1 -11 -6 -14 -12 -4 11 0
54 8 12 3 15 -1 11 -12 -4 -11 -2 -14 6 -9 17 11 73 -3 65 -16 -4 -6 -2 -8 3
-5 6 4 8 18 5 32 -3 20 -1 24 12 19 22 -8 21 12 -1 25 -10 6 -14 11 -9 11 5 0
17 -7 27 -16z m-231 -13 c0 -23 -16 -36 -25 -21 -9 14 1 40 15 40 5 0 10 -9
10 -19z m577 -17 c-7 -7 -37 7 -37 17 0 6 9 5 21 -1 11 -7 19 -14 16 -16z
m-213 10 c9 -3 16 -10 16 -16 0 -5 -4 -6 -10 -3 -5 3 -10 1 -10 -4 0 -19 -17
-12 -23 9 -5 21 1 24 27 14z m150 -53 c-1 -20 2 -29 10 -24 7 3 6 1 -1 -7 -11
-12 -15 -11 -26 4 -13 18 -14 18 -21 0 -6 -15 -9 -16 -16 -5 -9 15 9 42 23 34
7 -4 11 12 8 30 -1 5 4 7 11 4 7 -2 12 -18 12 -36z m-59 17 c4 -3 1 -15 -6
-26 -13 -21 -49 -19 -49 4 0 8 -5 14 -11 14 -5 0 -8 4 -5 9 6 10 62 9 71 -1z
m-571 -14 c3 -8 2 -12 -4 -9 -6 3 -10 10 -10 16 0 14 7 11 14 -7z m93 -56 c-3
-8 -6 -5 -6 6 -1 11 2 17 5 13 3 -3 4 -12 1 -19z m268 -68 c3 -5 2 -10 -4 -10
-5 0 -13 5 -16 10 -3 6 -2 10 4 10 5 0 13 -4 16 -10z m64 -249 c16 -10 8 -27
-22 -43 -19 -10 -21 -9 -9 4 9 11 10 18 2 23 -6 3 -8 11 -5 16 8 11 16 11 34
0z m-914 -67 c-3 -38 -11 -52 -22 -40 -4 4 -2 16 5 26 15 24 15 33 2 25 -6 -3
-7 1 -4 9 11 29 23 17 19 -20z m1757 24 c10 0 20 -4 23 -9 10 -15 -24 -22 -51
-11 -27 13 -34 38 -6 27 9 -4 25 -7 34 -7z m-1227 -46 c22 -18 22 -36 0 -38
-5 -1 -23 -4 -38 -8 -16 -4 -27 -3 -25 1 19 41 32 63 36 63 2 0 14 -8 27 -18z
m2560 -176 c7 3 15 -7 18 -25 4 -17 25 -75 48 -128 39 -90 42 -105 43 -189 1
-87 -13 -144 -36 -144 -5 0 -4 9 3 21 16 31 13 147 -5 199 -9 25 -18 49 -19
55 -5 22 -33 40 -60 40 -33 0 -54 23 -44 49 4 9 16 16 28 16 20 0 21 4 15 43
-4 23 -11 46 -17 52 -5 5 -9 14 -9 19 0 6 5 5 11 -1 6 -6 17 -9 24 -7z m-2121
-36 c7 0 21 -17 32 -38 16 -29 18 -44 11 -65 -5 -15 -14 -27 -21 -27 -6 0 -12
-8 -13 -17 -1 -10 -4 -28 -8 -40 -6 -19 0 -25 41 -45 26 -13 51 -30 54 -38 4
-8 12 -25 18 -37 10 -19 9 -24 -8 -33 -11 -6 -24 -18 -29 -28 -8 -15 -3 -17
43 -20 54 -2 56 -4 110 -82 33 -47 40 -80 22 -105 -13 -18 -17 -18 -37 -6
-145 88 -262 109 -271 48 -4 -26 -28 -29 -51 -5 -15 15 -16 18 -1 32 11 12 12
16 2 16 -8 0 -14 14 -15 35 -1 20 -7 51 -13 71 -9 26 -15 32 -25 24 -9 -8 -11
-5 -7 15 2 15 0 25 -7 25 -6 0 -11 -5 -11 -12 0 -6 -3 -9 -6 -5 -11 10 11 32
33 33 18 0 20 -2 12 -13 -8 -9 -8 -13 -1 -13 6 0 13 6 16 13 5 10 7 10 12 0 7
-15 34 -17 34 -3 0 6 -7 10 -14 10 -8 0 -27 11 -42 25 -15 14 -31 25 -36 25
-5 0 -6 5 -2 11 4 7 8 21 9 33 1 11 3 25 4 30 0 4 10 6 21 3 11 -3 20 -4 20
-2 0 2 3 11 7 21 5 13 3 16 -10 11 -11 -4 -14 -2 -10 9 3 7 10 14 15 14 6 0 7
13 3 32 -7 30 -7 31 10 14 10 -9 19 -15 21 -13 7 7 -8 37 -18 37 -6 0 -5 6 2
15 7 8 25 15 40 15 34 0 43 9 27 28 -10 13 -9 15 6 9 10 -4 24 -7 31 -7z m892
-139 c0 -16 -4 -17 -18 -10 -10 5 -18 12 -18 15 0 3 4 3 9 -1 5 -3 12 -1 16 5
9 14 11 13 11 -9z m-32 -70 c2 -28 -1 -48 -5 -45 -5 2 -5 12 -2 21 4 11 3 14
-5 9 -13 -7 -12 27 0 40 4 3 4 13 1 22 -4 10 -3 14 1 10 4 -3 9 -29 10 -57z
m-44 -6 c0 -8 -5 -15 -11 -15 -5 0 -7 -4 -4 -10 3 -5 1 -10 -4 -10 -6 0 -11 7
-11 15 0 8 6 15 13 15 8 0 7 4 -3 10 -13 8 -12 10 3 10 9 0 17 -7 17 -15z
m-1134 -44 c21 17 55 -14 36 -33 -9 -9 -12 -9 -12 0 0 7 -9 12 -21 12 -19 0
-19 -1 -4 -16 17 -17 16 -35 -1 -41 -6 -2 -15 6 -20 18 -8 18 -10 14 -11 -21
-1 -23 -6 -47 -12 -53 -5 -7 -9 -16 -10 -22 0 -5 -6 -11 -14 -13 -19 -4 -30
27 -16 45 7 7 9 16 6 20 -3 3 1 22 9 41 18 44 47 78 52 62 3 -8 8 -7 18 1z
m70 -2 c3 -6 2 -15 -4 -21 -6 -6 -11 -2 -15 11 -5 22 7 29 19 10z m-266 -30
c0 -6 -4 -7 -10 -4 -5 3 -10 11 -10 16 0 6 5 7 10 4 6 -3 10 -11 10 -16z
m1330 1 c0 -5 -2 -10 -4 -10 -3 0 -8 5 -11 10 -3 6 -1 10 4 10 6 0 11 -4 11
-10z m150 -80 c0 -5 -2 -10 -4 -10 -3 0 -8 5 -11 10 -3 6 -1 10 4 10 6 0 11
-4 11 -10z m-1505 -40 c-3 -5 -12 -10 -18 -10 -7 0 -6 4 3 10 19 12 23 12 15
0z m323 -65 c-15 -15 -22 -17 -25 -7 -4 9 -9 10 -17 2 -9 -7 -18 -4 -31 10
-10 11 -25 20 -34 21 -16 1 -8 5 47 24 12 4 22 12 22 17 0 5 13 -3 29 -19 l29
-28 -20 -20z m36 59 c3 -8 2 -12 -4 -9 -6 3 -10 10 -10 16 0 14 7 11 14 -7z
m-525 -39 c6 3 11 0 11 -7 0 -9 -11 -14 -27 -13 -16 0 -28 5 -27 13 3 34 5 36
19 18 7 -10 18 -15 24 -11z m121 5 c0 -5 -5 -10 -11 -10 -5 0 -7 5 -4 10 3 6
8 10 11 10 2 0 4 -4 4 -10z m1610 -20 c0 -5 -2 -10 -4 -10 -3 0 -8 5 -11 10
-3 6 -1 10 4 10 6 0 11 -4 11 -10z m-1875 -50 c3 -5 1 -10 -4 -10 -6 0 -11 5
-11 10 0 6 2 10 4 10 3 0 8 -4 11 -10z m241 -15 c1 -15 -3 -25 -12 -25 -17 0
-19 36 -1 43 6 3 12 6 12 6 0 1 1 -10 1 -24z m2275 -22 c-8 -15 -10 -15 -11
-2 0 17 10 32 18 25 2 -3 -1 -13 -7 -23z m39 -7 c0 -3 -4 -8 -10 -11 -5 -3
-10 -1 -10 4 0 6 5 11 10 11 6 0 10 -2 10 -4z m60 -10 c0 -3 -4 -8 -10 -11 -5
-3 -10 -1 -10 4 0 6 5 11 10 11 6 0 10 -2 10 -4z m-80 -25 c0 -5 -7 -14 -15
-21 -13 -10 -15 -9 -15 9 0 12 6 21 15 21 8 0 15 -4 15 -9z m32 -103 c-6 -6
-9 0 -9 18 0 23 1 24 9 10 7 -12 7 -21 0 -28z m-637 -58 c11 -17 -5 -11 -28
11 l-22 21 22 -11 c12 -6 25 -16 28 -21z m690 -10 c3 -5 1 -10 -4 -10 -6 0
-11 5 -11 10 0 6 2 10 4 10 3 0 8 -4 11 -10z m-11 -72 c-4 -18 -7 -39 -5 -45
1 -7 -3 -13 -8 -13 -11 0 -8 70 4 89 12 21 17 4 9 -31z m-698 -7 c11 9 14 8
14 -3 0 -7 -9 -14 -20 -15 -13 -1 -20 4 -19 15 0 11 2 13 6 4 4 -10 8 -10 19
-1z m148 -17 c3 -8 2 -12 -4 -9 -6 3 -10 10 -10 16 0 14 7 11 14 -7z m86 -24
c0 -5 -2 -10 -4 -10 -3 0 -8 5 -11 10 -3 6 -1 10 4 10 6 0 11 -4 11 -10z
m-310 -10 c0 -5 -5 -10 -11 -10 -5 0 -7 5 -4 10 3 6 8 10 11 10 2 0 4 -4 4
-10z m206 -17 c7 -27 24 -21 24 8 0 44 72 -2 75 -49 1 -17 -2 -19 -17 -11 -14
8 -18 6 -19 -8 -1 -10 -1 -21 0 -25 0 -5 -3 -8 -9 -8 -5 0 -10 5 -10 12 0 6
-3 8 -7 5 -3 -4 3 -16 15 -28 13 -11 19 -25 15 -32 -5 -8 -8 -8 -11 1 -6 18
-22 14 -22 -5 0 -14 -3 -14 -20 5 -11 12 -20 28 -20 36 0 10 -6 13 -17 9 -16
-6 -16 -5 -4 10 13 16 14 16 28 0 12 -17 13 -16 11 7 -2 16 -9 25 -19 24 -11
-1 -14 5 -11 23 3 16 -2 29 -14 38 -18 13 -18 14 4 12 15 -1 25 -9 28 -24z
m-66 -70 c0 -25 -1 -26 -24 -17 -17 6 -21 31 -10 58 6 15 8 15 20 -1 7 -10 14
-28 14 -40z m-162 12 c-3 -3 -9 2 -12 12 -6 14 -5 15 5 6 7 -7 10 -15 7 -18z
m117 -45 c11 -17 -5 -31 -19 -17 -14 12 -12 27 4 27 5 0 12 -4 15 -10z m635 6
c0 -3 -4 -8 -10 -11 -5 -3 -10 -1 -10 4 0 6 5 11 10 11 6 0 10 -2 10 -4z
m-420 -27 c0 -6 -4 -7 -10 -4 -5 3 -10 11 -10 16 0 6 5 7 10 4 6 -3 10 -11 10
-16z m-116 -28 c3 -5 -6 -8 -20 -8 -19 0 -22 2 -13 8 18 11 26 11 33 0z m471
-21 c3 -5 2 -10 -4 -10 -5 0 -13 5 -16 10 -3 6 -2 10 4 10 5 0 13 -4 16 -10z
m-409 -83 c8 -4 14 -18 14 -30 -1 -20 -2 -20 -16 5 -9 17 -20 25 -29 22 -18
-7 -19 2 -2 20 8 10 13 11 16 3 2 -7 10 -16 17 -20z m368 17 c8 -22 -4 -40
-15 -23 -11 18 -11 39 0 39 5 0 12 -7 15 -16z m-64 -38 c0 -13 -9 -31 -20 -41
-24 -21 -26 -8 -8 41 13 36 28 36 28 0z m27 -28 c-2 -12 -9 -24 -15 -26 -15
-5 -15 3 0 28 16 25 19 25 15 -2z m-53 -53 c-8 -21 13 -19 25 3 10 16 10 16
11 -1 0 -10 -6 -24 -12 -31 -10 -9 -17 -8 -29 5 -12 12 -14 20 -6 28 15 15 17
14 11 -4z m-124 -31 c0 -8 -4 -12 -10 -9 -5 3 -10 10 -10 16 0 5 5 9 10 9 6 0
10 -7 10 -16z m300 -59 c0 -5 -5 -3 -10 5 -5 8 -10 20 -10 25 0 6 5 3 10 -5 5
-8 10 -19 10 -25z m-195 -686 c11 -17 -1 -21 -15 -4 -8 9 -8 15 -2 15 6 0 14
-5 17 -11z m5 -69 c0 -5 -10 -10 -22 -9 -22 0 -22 1 -3 9 11 5 21 9 23 9 1 1
2 -3 2 -9z m-40 -104 c0 -3 -4 -8 -10 -11 -5 -3 -10 -1 -10 4 0 6 5 11 10 11
6 0 10 -2 10 -4z"/>
<path d="M770 4273 c0 -5 4 -14 9 -21 7 -11 9 -11 14 1 3 8 3 18 0 21 -9 8
-23 7 -23 -1z"/>
<path d="M3430 2910 c0 -5 5 -10 10 -10 6 0 10 5 10 10 0 6 -4 10 -10 10 -5 0
-10 -4 -10 -10z"/>
<path d="M3551 2554 c0 -11 3 -14 6 -6 3 7 2 16 -1 19 -3 4 -6 -2 -5 -13z"/>
<path d="M3360 2376 c0 -16 -5 -23 -16 -22 -9 0 -19 -6 -22 -14 -4 -12 -2 -13
9 -3 10 8 20 9 29 3 24 -15 34 -11 19 7 -8 9 -9 14 -3 10 7 -4 12 2 12 18 0
15 -6 25 -14 25 -8 0 -14 -10 -14 -24z"/>
<path d="M3369 2244 c-12 -14 -11 -16 5 -13 11 2 21 10 24 17 5 17 -13 15 -29
-4z"/>
<path d="M3320 2240 c0 -5 5 -10 10 -10 6 0 10 5 10 10 0 6 -4 10 -10 10 -5 0
-10 -4 -10 -10z"/>
<path d="M3410 2190 c0 -5 5 -10 10 -10 6 0 10 5 10 10 0 6 -4 10 -10 10 -5 0
-10 -4 -10 -10z"/>
<path d="M3343 2124 c-13 -12 -23 -24 -23 -27 0 -10 44 -3 56 8 9 8 9 15 0 26
-9 12 -14 11 -33 -7z"/>
<path d="M3375 1870 c3 -5 8 -10 11 -10 2 0 4 5 4 10 0 6 -5 10 -11 10 -5 0
-7 -4 -4 -10z"/>
<path d="M3427 1823 c-10 -9 -9 -23 1 -23 5 0 9 7 9 15 0 17 -1 18 -10 8z"/>
<path d="M3943 1802 c-17 -2 -23 -10 -23 -28 0 -13 -6 -24 -12 -24 -8 -1 -6
-6 5 -14 10 -8 14 -16 8 -17 -6 -3 -5 -11 3 -21 10 -14 12 -9 12 29 1 33 6 50
19 59 22 16 18 21 -12 16z"/>
<path d="M3580 1741 c0 -5 5 -13 10 -16 6 -3 10 -2 10 4 0 5 -4 13 -10 16 -5
3 -10 2 -10 -4z"/>
<path d="M3790 1699 c0 -4 7 -22 15 -40 10 -25 14 -29 15 -13 0 17 -29 70 -30
53z"/>
<path d="M3860 1691 c0 -5 5 -13 10 -16 6 -3 10 -2 10 4 0 5 -4 13 -10 16 -5
3 -10 2 -10 -4z"/>
<path d="M3897 1668 c-2 -13 -8 -30 -11 -39 -4 -10 -2 -19 7 -22 9 -3 13 2 13
16 -1 12 5 22 12 22 6 0 12 5 11 10 -1 6 -5 9 -10 8 -4 -2 -6 4 -3 12 4 8 2
15 -4 15 -5 0 -12 -10 -15 -22z"/>
<path d="M3645 1660 c4 -11 2 -20 -4 -20 -6 0 -11 -5 -11 -11 0 -6 7 -9 15 -5
10 3 20 -5 30 -24 29 -56 32 -39 3 20 -28 59 -46 79 -33 40z"/>
<path d="M3840 1559 c0 -5 5 -7 10 -4 6 3 10 8 10 11 0 2 -4 4 -10 4 -5 0 -10
-5 -10 -11z"/>
<path d="M3844 1529 c-6 -8 -8 -25 -4 -39 6 -21 8 -22 14 -8 4 9 6 27 4 39 -2
18 -5 20 -14 8z"/>
<path d="M3657 1508 c-10 -11 -16 -22 -14 -25 6 -6 47 28 47 39 0 13 -14 7
-33 -14z"/>
<path d="M3810 1481 c0 -26 -18 -37 -26 -17 -11 28 -22 17 -20 -16 4 -47 5
-48 17 -48 6 0 8 7 5 16 -3 8 -2 13 3 10 5 -3 16 9 25 28 19 40 20 46 6 46 -5
0 -10 -9 -10 -19z"/>
<path d="M3595 1400 c3 -5 8 -10 11 -10 2 0 4 5 4 10 0 6 -5 10 -11 10 -5 0
-7 -4 -4 -10z"/>
<path d="M3570 1374 c0 -8 5 -12 10 -9 6 3 10 10 10 16 0 5 -4 9 -10 9 -5 0
-10 -7 -10 -16z"/>
<path d="M3730 1360 c0 -5 -6 -7 -14 -4 -8 3 -16 1 -20 -4 -3 -5 5 -8 16 -7
19 1 41 25 24 25 -3 0 -6 -4 -6 -10z"/>
<path d="M3593 1353 c-7 -2 -13 -9 -13 -15 0 -7 5 -7 13 1 8 6 17 8 20 4 4 -3
7 -1 7 5 0 13 -7 14 -27 5z"/>
<path d="M3610 1322 c0 -7 -7 -9 -17 -5 -15 5 -16 3 -5 -8 9 -10 15 -10 24 -1
6 6 9 15 5 19 -4 3 -7 1 -7 -5z"/>
<path d="M2024 3184 c3 -9 6 -18 6 -20 0 -3 5 -2 10 1 6 3 10 -1 10 -9 0 -19
26 -21 36 -4 5 7 2 9 -8 5 -10 -3 -19 3 -27 19 -12 26 -37 34 -27 8z"/>
<path d="M2006 3151 c-4 -5 -2 -12 3 -15 5 -4 12 -2 15 3 4 5 2 12 -3 15 -5 4
-12 2 -15 -3z"/>
<path d="M2087 3127 c-3 -8 1 -21 9 -27 15 -13 17 -6 5 24 -6 17 -8 17 -14 3z"/>
<path d="M3540 1575 c-8 -9 -8 -15 -2 -15 12 0 26 19 19 26 -2 2 -10 -2 -17
-11z"/>
<path d="M2495 5580 c-3 -5 -2 -10 4 -10 5 0 13 5 16 10 3 6 2 10 -4 10 -5 0
-13 -4 -16 -10z"/>
<path d="M2311 5475 c-35 -40 -38 -47 -16 -39 8 4 15 10 15 16 0 5 12 20 26
33 15 14 22 25 16 25 -5 0 -24 -16 -41 -35z"/>
<path d="M3388 5323 c7 -3 16 -2 19 1 4 3 -2 6 -13 5 -11 0 -14 -3 -6 -6z"/>
<path d="M3428 5323 c7 -3 16 -2 19 1 4 3 -2 6 -13 5 -11 0 -14 -3 -6 -6z"/>
<path d="M1800 5240 c-8 -5 -10 -10 -5 -10 6 0 17 5 25 10 8 5 11 10 5 10 -5
0 -17 -5 -25 -10z"/>
<path d="M4211 2414 c0 -11 3 -14 6 -6 3 7 2 16 -1 19 -3 4 -6 -2 -5 -13z"/>
<path d="M1305 2393 c-17 -14 -24 -22 -18 -19 7 4 23 2 35 -5 13 -6 20 -8 15
-4 -4 5 0 16 8 25 27 29 -6 31 -40 3z"/>
<path d="M4190 2286 c0 -13 7 -29 15 -36 17 -14 20 -3 9 38 -8 29 -24 28 -24
-2z"/>
<path d="M1626 2134 c-22 -21 -20 -27 4 -12 11 7 20 16 20 20 0 12 -7 10 -24
-8z"/>
<path d="M4201 2083 c0 -36 3 -43 9 -28 12 28 12 63 0 70 -6 4 -10 -12 -9 -42z"/>
<path d="M1320 2100 c0 -5 5 -10 10 -10 6 0 10 5 10 10 0 6 -4 10 -10 10 -5 0
-10 -4 -10 -10z"/>
<path d="M1350 2080 c0 -5 7 -10 15 -10 8 0 15 5 15 10 0 6 -7 10 -15 10 -8 0
-15 -4 -15 -10z"/>
<path d="M4280 152 c19 -17 38 -31 41 -32 12 0 39 -67 39 -94 l0 -26 128 1
c101 1 120 3 93 11 -19 5 -54 26 -77 46 -54 48 -168 108 -219 117 l-40 7 35
-30z"/>
<path d="M3755 150 c3 -5 8 -10 11 -10 2 0 4 5 4 10 0 6 -5 10 -11 10 -5 0 -7
-4 -4 -10z"/>
</g>
</svg>
