<?xml version="1.0" encoding="utf-8"?>
<!-- Generator: Adobe Illustrator 17.0.0, SVG Export Plug-In . SVG Version: 6.00 Build 0)  -->
<!DOCTYPE svg PUBLIC "-//W3C//DTD SVG 1.1//EN" "http://www.w3.org/Graphics/SVG/1.1/DTD/svg11.dtd">
<svg version="1.1" id="Layer_1" xmlns="http://www.w3.org/2000/svg" xmlns:xlink="http://www.w3.org/1999/xlink" x="0px" y="0px"
	 width="100px" height="25px" viewBox="0 0 100 25" enable-background="new 0 0 100 25" xml:space="preserve">

<path fill="#FFFFFF" d="M28.254-0.014h18.583c1.765,0,3.209,1.444,3.209,3.209v18.583c0,1.765-1.444,3.209-3.209,3.209H28.254
	c-1.764,0-3.209-1.444-3.209-3.209V3.195C25.045,1.43,26.49-0.014,28.254-0.014L28.254-0.014z M43.257,2.764
	c-0.619,0-1.125,0.507-1.125,1.126v2.694c0,0.619,0.506,1.126,1.125,1.126h2.826c0.619,0,1.126-0.507,1.126-1.126V3.89
	c0-0.619-0.506-1.126-1.126-1.126H43.257L43.257,2.764z M47.22,10.559H45.02c0.208,0.68,0.32,1.399,0.32,2.145
	c0,4.158-3.479,7.529-7.771,7.529s-7.77-3.371-7.77-7.529c0-0.746,0.112-1.465,0.321-2.145h-2.296v10.56
	c0,0.547,0.448,0.994,0.994,0.994h17.409c0.547,0,0.994-0.447,0.994-0.994L47.22,10.559L47.22,10.559z M37.569,7.567
	c-2.773,0-5.021,2.178-5.021,4.865s2.248,4.865,5.021,4.865c2.773,0,5.021-2.178,5.021-4.865S40.342,7.567,37.569,7.567z"/>
<path fill="#FFFFFF" d="M24.904,4.776c-0.916,0.406-1.901,0.681-2.934,0.804c1.055-0.633,1.865-1.634,2.246-2.827
	c-0.987,0.585-2.081,1.01-3.244,1.24C20.039,3,18.712,2.38,17.242,2.38c-2.822,0-5.11,2.287-5.11,5.11
	c0,0.4,0.045,0.791,0.133,1.164C8.019,8.44,4.254,6.407,1.733,3.315C1.294,4.07,1.041,4.947,1.041,5.883
	c0,1.773,0.902,3.337,2.273,4.253C2.476,10.109,1.689,9.88,1,9.497C1,9.519,1,9.54,1,9.562c0,2.476,1.761,4.54,4.099,5.01
	c-0.428,0.117-0.88,0.179-1.346,0.179c-0.329,0-0.649-0.032-0.961-0.092c0.65,2.03,2.537,3.508,4.774,3.548
	c-1.749,1.37-3.952,2.188-6.346,2.188c-0.412,0-0.819-0.024-1.219-0.072c2.261,1.45,4.947,2.296,7.832,2.296
	c9.398,0,14.538-7.786,14.538-14.538c0-0.221-0.005-0.441-0.015-0.661C23.352,6.7,24.219,5.8,24.904,4.776z"/>
<path id="Dribbble_1_" fill="#FFFFFF" d="M87.339,0.048c-6.877,0.001-12.452,5.575-12.452,12.453
	c0,6.876,5.574,12.452,12.452,12.452c6.877,0,12.452-5.575,12.453-12.452C99.791,5.623,94.217,0.048,87.339,0.048z M94.969,6.504
	c1.215,1.543,1.976,3.453,2.071,5.539c-1.406-0.298-2.734-0.443-3.972-0.443l0,0h-0.009c-0.997,0-1.933,0.091-2.815,0.247
	c-0.214-0.525-0.431-1.03-0.65-1.513C91.558,9.472,93.443,8.246,94.969,6.504z M87.339,2.785c2.292,0,4.394,0.801,6.058,2.135
	c-1.273,1.525-2.955,2.629-4.77,3.409c-1.276-2.467-2.509-4.233-3.352-5.312C85.942,2.869,86.631,2.785,87.339,2.785z M83.048,3.798
	c0.674,0.796,2.024,2.548,3.466,5.283c-2.933,0.873-5.886,1.078-7.672,1.077c-0.051,0-0.101,0-0.151-0.001H78.69
	c-0.301,0-0.56-0.004-0.776-0.011C78.611,7.358,80.522,5.048,83.048,3.798z M77.625,12.501c0-0.046,0.002-0.092,0.004-0.14
	c0.277,0.011,0.633,0.019,1.062,0.019h0.002c1.953-0.013,5.363-0.176,8.818-1.267c0.189,0.412,0.375,0.841,0.559,1.286
	c-2.307,0.772-4.125,2.002-5.469,3.226c-1.294,1.179-2.169,2.346-2.679,3.126C78.492,17.058,77.625,14.882,77.625,12.501z
	 M87.339,22.216c-2.162,0-4.155-0.715-5.771-1.915c0.344-0.566,1.08-1.652,2.253-2.774c1.207-1.157,2.873-2.348,5.049-3.056
	c0.74,2.073,1.408,4.442,1.918,7.109C89.714,21.989,88.555,22.216,87.339,22.216z M92.838,20.491
	c-0.493-2.412-1.113-4.587-1.793-6.528c0.631-0.091,1.294-0.142,1.992-0.142h0.026h0.001h0.001c1.159,0,2.433,0.144,3.813,0.458
	C96.401,16.847,94.913,19.06,92.838,20.491z"/>
<path fill="#FFFFFF" d="M73.052,0H51.881c-1.014,0-1.836,0.802-1.836,1.791v21.418c0,0.989,0.822,1.791,1.836,1.791h21.171
	c1.014,0,1.836-0.802,1.836-1.791V1.791C74.888,0.802,74.066,0,73.052,0z M57.575,20.927h-3.752V9.639h3.752V20.927z M55.7,8.098
	h-0.024c-1.259,0-2.073-0.868-2.073-1.951c0-1.107,0.839-1.95,2.123-1.95c1.283,0,2.073,0.843,2.098,1.95
	C57.822,7.23,57.008,8.098,55.7,8.098z M71.105,20.927h-3.752v-6.039c0-1.517-0.543-2.553-1.901-2.553
	c-1.036,0-1.654,0.698-1.925,1.373c-0.099,0.241-0.124,0.578-0.124,0.915v6.304h-3.752c0,0,0.049-10.23,0-11.289h3.752v1.6
	c0.498-0.769,1.39-1.864,3.382-1.864c2.469,0,4.32,1.613,4.32,5.081V20.927z"/>

<filter id="blur-effect-1">
    <feGaussianBlur stdDeviation="5" />
</filter>
</svg>
